<?xml version="1.0" encoding="UTF-8"?>
<svg id="Layer_1" data-name="Layer 1" xmlns="http://www.w3.org/2000/svg" viewBox="0 0 794.99 928">
  <defs>
    <style>
      .cls-1 {
        fill: #fff;
        fill-rule: evenodd;
      }
    </style>
  </defs>
  <path class="cls-1" d="M691.02,0c7.18,2,14.51,3.5,22,4.5,4.17,2.59,8.51,4.92,13,7,3.77,5.77,8.77,10.1,15,13,7.45,9.45,16.11,17.45,26,24,3.39,3.73,7.06,7.06,11,10,5.22,6.31,10.06,12.81,14.5,19.5,3.61,10.79,3.27,21.46-1,32-3.78,3.93-6.94,8.27-9.5,13-2.93,1.43-5.43,3.43-7.5,6-3.55,12.33-9.55,23.33-18,33-3.39,7.78-7.05,15.45-11,23-1.74,2.24-3.91,3.91-6.5,5-1.21,3.78-2.71,7.45-4.5,11-5.4,5.8-10.07,12.13-14,19-3.61,3.12-6.95,6.46-10,10-6.81,13.42-13.81,26.76-21,40-4.64,7.11-9.14,14.28-13.5,21.5l1,1c-5.21,8.26-10.05,16.76-14.5,25.5-8.39,8.45-15.06,18.11-20,29-4.64,4.31-8.98,8.98-13,14-.33,2-.67,4-1,6-6.19,8.05-10.52,17.05-13,27-4.47,7.46-8.47,15.12-12,23-4.49,4.37-8.49,9.04-12,14-4.44,4.78-9.11,9.12-14,13-1.55,4.6-.22,7.94,4,10,4.58,8.91,11.41,15.41,20.5,19.5,3,.33,6,.67,9,1,3.22,2.78,6.89,4.78,11,6,5.65,4.3,11.31,8.64,17,13,3.59,2.92,6.42,6.42,8.5,10.5,2.33,1.67,4.67,3.33,7,5,3.85,8.09,7.19,16.43,10,25,.83,3.96,1.33,7.96,1.5,12-.46,9.71-.96,19.38-1.5,29-1.88,4.87-4.88,8.87-9,12-1.18,8.37-2.51,16.7-4,25-3.72,7.84-7.06,15.84-10,24-1.38,1.71-3.04,3.05-5,4-3.09,9.09-7.09,17.75-12,26-3.73,4.73-7.06,9.73-10,15-3.33,2.67-6.67,5.33-10,8-7.72,11.33-14.72,22.99-21,35-8.42,9.68-16.76,19.35-25,29-8.09,5.42-14.92,12.25-20.5,20.5-6.07,2.05-11.07,5.72-15,11-5.95,2.81-10.95,6.81-15,12-7.19,3.43-13.52,8.1-19,14-9.09,4.04-18.09,8.38-27,13-.67,1-1.33,2-2,3-3.33,1.67-6.67,3.33-10,5-2.37,2.71-5.04,5.04-8,7-9.21,4.11-18.21,8.44-27,13-7.54.73-14.54,3.07-21,7-28.36,2.72-56.7,5.89-85,9.5-8.03-1-16.03-.66-24,1-8.79-3.22-17.79-4.38-27-3.5-2.65-2.92-5.31-5.92-8-9-7.23-4.78-14.89-8.78-23-12-2.15-3.11-4.65-5.95-7.5-8.5-.67-2.33-.67-4.67,0-7,4.42-5.11,8.09-10.77,11-17,1.82-.83,3.65-1.66,5.5-2.5,3.95-5.62,8.29-10.96,13-16,6.6-1.3,11.93-4.63,16-10,5.37-4.36,11.04-8.36,17-12,6.64-2.95,13.31-3.11,20-.5,5.02-.91,9.69.09,14,3,8.12,7.29,14.96,15.62,20.5,25-.12,6.52,2.38,11.68,7.5,15.5,7.56-.9,15.23-1.57,23-2,2.88-1.61,5.88-2.94,9-4,10.9-.78,21.24-3.44,31-8,1.67-1,3-2.33,4-4,7.47-3.48,14.8-7.15,22-11,6.43-8.06,14.76-13.4,25-16,1.9-1.82,3.57-3.82,5-6,3.62-1.49,7.28-2.82,11-4,1.22-1.65,2.05-3.48,2.5-5.5,3.83-2.5,7-5.67,9.5-9.5,11.17-4.5,19-12.33,23.5-23.5,6.08-6.28,12.91-11.44,20.5-15.5l5.5-5.5c2.85-5.53,5.52-11.2,8-17,5.55-5.59,10.55-11.59,15-18,.41-2.73,1.08-5.4,2-8,6.08-7.83,11.41-16.16,16-25,3.29-8.57,6.96-16.9,11-25,1.73-8.5,3.73-16.83,6-25,.42-1.17,1.09-2.17,2-3,.23-7.7.73-15.36,1.5-23-1-3.86-.5-7.52,1.5-11,.67-3,.67-6,0-9-3.13-6.04-6.63-11.87-10.5-17.5-5.77-3.44-11.27-7.27-16.5-11.5-12.99-5.09-24.49-12.59-34.5-22.5-2.67-1.33-5.33-2.67-8-4-5.64-4.63-10.97-9.63-16-15-3.59-1.53-7.26-2.86-11-4-8.47-7.14-17.47-13.47-27-19-3.01-2.17-5.01-5-6-8.5,1.25-3.76,2.75-7.42,4.5-11,5.11-3.47,9.94-7.31,14.5-11.5,7.82-4.04,16.15-6.7,25-8,5.08-3.15,10.42-5.82,16-8,18.06-1.94,32.89-9.78,44.5-23.5,1.18-5.04,3.85-9.04,8-12,13.11-25.01,26.78-49.68,41-74,2.95-2.46,5.61-5.12,8-8,.02-6.18,2.02-11.51,6-16,.79-4.91,3.12-8.91,7-12,1.12-3.28,2.12-6.62,3-10,1.29-3.28,3.29-5.95,6-8,.33-2.33.67-4.67,1-7,4.87-6.87,8.87-14.2,12-22,7.45-9.77,14.45-19.77,21-30,1.1-4.02,2.6-7.85,4.5-11.5-.96-2.12-1.13-4.29-.5-6.5,11.07-16.47,19.73-34.13,26-53,.67-.67,1.33-1.33,2-2,.57-7,1.07-13.84,1.5-20.5-.96-1.42-1.79-2.92-2.5-4.5-5.03-3.94-9.53-8.44-13.5-13.5-2.33-.67-4.67-.67-7,0-17.85,9.09-34.85,19.42-51,31-7.51,3.18-13.51,8.18-18,15-8.27,2.77-14.6,7.94-19,15.5-2.51,1.75-5.17,3.25-8,4.5-11.43,12.15-23.09,24.15-35,36-9.38,4.88-17.05,11.71-23,20.5-10.77,6.6-19.77,15.1-27,25.5-4.4,3.39-9.07,6.39-14,9-1.97,3.43-4.3,6.6-7,9.5-10.52,7.02-19.19,15.86-26,26.5-4.97,3.23-9.3,7.23-13,12-10.57,6.9-18.73,16.07-24.5,27.5-5.98,6.64-11.48,13.64-16.5,21-8.83,6.66-16.49,14.49-23,23.5-3.1,1.44-5.94,3.27-8.5,5.5-2.91,6.14-6.57,11.81-11,17-3.37,3.7-7.03,7.04-11,10l-3,6c-3.67,3-7.33,6-11,9-1.64,3.96-3.31,7.96-5,12-4.8,4.79-8.8,10.12-12,16-4.63,4.81-9.63,9.14-15,13-3.77,7.88-8.77,14.88-15,21-1,2.67-2,5.33-3,8-6.64,6.61-12.3,13.94-17,22-8.57,5.89-14.9,13.56-19,23-7.12,4.79-12.45,11.12-16,19-9.39,11.77-18.06,24.1-26,37-4.27,5.28-8.94,10.28-14,15-9.12,14.58-17.46,29.58-25,45-6.6,8.94-11.94,18.61-16,29-4,5.33-8,10.67-12,16-1.59,4.59-2.92,9.25-4,14-8.11,10.9-14.11,22.9-18,36-2.86,4.37-6.19,8.37-10,12-1.37,3.66-1.7,7.33-1,11-1.42,5.96-3.92,11.46-7.5,16.5.91,1.79,1.08,3.62.5,5.5-5.85,9.02-10.01,18.68-12.5,29,.8,3.46,1.47,6.96,2,10.5-4.87,19.03-12.37,36.86-22.5,53.5l-3,15c-3.41,9.14-7.07,18.14-11,27-1.62,3.58-3.95,6.58-7,9-1.64,4.29-1.81,8.62-.5,13-2.78,5.94-7.11,10.44-13,13.5-4.26.22-8.43.38-12.5.5-4.13-2.83-8.63-5-13.5-6.5-.76-1.51-1.76-2.85-3-4-4.78-.12-9.45-.78-14-2-2.02-3.18-2.52-6.68-1.5-10.5,2.23-8.02,5.23-15.68,9-23,.33-3,.67-6,1-9,3.94-8.22,7.61-16.55,11-25,3.46-7.58,7.46-14.91,12-22,.34-4.06,1.01-8.06,2-12,3.1-6.07,5.43-12.41,7-19,3.91-5.92,7.07-12.26,9.5-19,.03-2.96-.3-5.96-1-9,1.9-2.72,3.56-5.56,5-8.5-1.01-10.62,1.66-20.29,8-29-1.27-3.51-1.1-7.01.5-10.5,9.12-13.59,16.12-28.25,21-44,2.24-2.15,4.24-4.48,6-7,2.72-8.04,7.05-15.04,13-21,.97-1.89,1.64-3.89,2-6,4.03-6.02,8.03-12.02,12-18,2.28-4.12,4.12-8.45,5.5-13,6.67-4.66,10.83-10.99,12.5-19l6-6c3.61-8.19,8.95-15.19,16-21,9.72-15.4,19.05-31.07,28-47,6.03-6.04,11.37-12.71,16-20,7-7.67,14-15.33,21-23,2.48-4.9,4.81-9.9,7-15,4.4-4.47,8.07-9.47,11-15,4.25-3.13,7.58-7.13,10-12,3.3-2.3,6.3-4.96,9-8,5.14-9.62,12.14-17.62,21-24,3.23-8.12,8.56-14.46,16-19,1.37-6.07,4.7-10.74,10-14,2.84-7.17,7.51-12.84,14-17,1.18-4.51,3.85-7.85,8-10,2.78-6.25,7.11-11.25,13-15,.31-1.27.81-2.43,1.5-3.5,5.54-2.54,9.37-6.7,11.5-12.5,5.05-4.22,9.22-9.22,12.5-15,1.69-1.53,3.53-2.86,5.5-4,.56-2.23,1.56-4.23,3-6,4.33-3.67,8.67-7.33,13-11,1.6-4.13,3.93-7.79,7-11,6.04-4.38,11.04-9.71,15-16,1.73-2.12,3.9-3.62,6.5-4.5,1.95-3.79,4.95-6.29,9-7.5,2.59-5.42,6.42-9.76,11.5-13,2.17-4.83,5.67-8.33,10.5-10.5,7.82-9.48,16.65-17.98,26.5-25.5-.05-3.11,1.11-5.61,3.5-7.5,12.61-10.94,24.94-22.27,37-34,2.84-1.92,5.84-3.59,9-5,11.05-12.05,22.39-23.72,34-35,3.81-3.74,8.14-6.74,13-9,6.57-7.81,14.24-14.47,23-20,7.93-7.96,16.6-14.96,26-21,8.87-9.55,18.87-17.55,30-24,5.13-7.23,11.79-12.57,20-16,6.07-5.6,12.73-10.1,20-13.5Z"/>
</svg>