<?xml version="1.0" encoding="UTF-8"?>
<svg id="Layer_1" data-name="Layer 1" xmlns="http://www.w3.org/2000/svg" viewBox="0 0 2702.11 1550">
  <defs>
    <style>
      .cls-1 {
        fill-rule: evenodd;
      }
    </style>
  </defs>
  <path pathLength="1" class="cls-1" d="M691.02,0c7.18,2.01,14.51,3.51,22,4.5,4.17,2.59,8.51,4.92,13,7,3.77,5.77,8.77,10.1,15,13,7.45,9.45,16.11,17.45,26,24,3.39,3.73,7.06,7.06,11,10,5.22,6.31,10.06,12.81,14.5,19.5,3.61,10.79,3.27,21.46-1,32-3.78,3.93-6.94,8.27-9.5,13-2.93,1.43-5.43,3.43-7.5,6-3.56,12.33-9.56,23.33-18,33-3.39,7.78-7.06,15.45-11,23-1.74,2.24-3.91,3.91-6.5,5-1.21,3.78-2.71,7.45-4.5,11-5.4,5.8-10.07,12.13-14,19-3.61,3.12-6.95,6.46-10,10-6.81,13.42-13.81,26.76-21,40-4.64,7.11-9.14,14.28-13.5,21.5l1,1c-5.21,8.26-10.05,16.76-14.5,25.5-8.39,8.45-15.06,18.11-20,29-4.64,4.31-8.98,8.98-13,14-.33,2-.67,4-1,6-6.19,8.05-10.52,17.05-13,27-4.47,7.46-8.47,15.12-12,23-4.49,4.37-8.49,9.04-12,14-4.44,4.78-9.11,9.12-14,13-1.55,4.6-.22,7.94,4,10,4.58,8.91,11.41,15.41,20.5,19.5,3,.33,6,.67,9,1,3.22,2.78,6.89,4.78,11,6,5.65,4.3,11.31,8.64,17,13,3.59,2.92,6.42,6.42,8.5,10.5,2.33,1.67,4.67,3.33,7,5,3.85,8.09,7.19,16.43,10,25,.83,3.96,1.33,7.96,1.5,12-.46,9.71-.96,19.38-1.5,29-1.88,4.87-4.88,8.87-9,12-1.18,8.37-2.51,16.7-4,25-3.72,7.84-7.06,15.84-10,24-1.38,1.71-3.04,3.05-5,4-3.09,9.09-7.09,17.75-12,26-3.73,4.73-7.06,9.73-10,15-3.33,2.67-6.67,5.33-10,8-7.72,11.33-14.72,22.99-21,35-8.42,9.68-16.76,19.35-25,29-8.09,5.42-14.92,12.25-20.5,20.5-6.07,2.05-11.07,5.72-15,11-5.95,2.81-10.95,6.81-15,12-7.19,3.44-13.52,8.1-19,14-9.09,4.04-18.09,8.38-27,13-.67,1-1.33,2-2,3-3.33,1.67-6.67,3.33-10,5-2.37,2.71-5.04,5.04-8,7-9.22,4.11-18.22,8.44-27,13-7.54.73-14.54,3.07-21,7-28.36,2.72-56.7,5.89-85,9.5-8.03-1-16.03-.67-24,1-8.78-3.22-17.78-4.38-27-3.5-2.65-2.92-5.31-5.92-8-9-7.23-4.78-14.89-8.78-23-12-2.15-3.11-4.65-5.95-7.5-8.5-.67-2.33-.67-4.67,0-7,4.42-5.11,8.09-10.77,11-17,1.82-.83,3.65-1.66,5.5-2.5,3.96-5.62,8.29-10.96,13-16,6.6-1.3,11.93-4.63,16-10,5.37-4.36,11.03-8.36,17-12,6.64-2.95,13.31-3.11,20-.5,5.02-.91,9.69.09,14,3,8.12,7.29,14.96,15.62,20.5,25-.12,6.52,2.38,11.68,7.5,15.5,7.56-.9,15.23-1.57,23-2,2.88-1.61,5.88-2.94,9-4,10.9-.78,21.24-3.44,31-8,1.67-1,3-2.33,4-4,7.47-3.48,14.8-7.15,22-11,6.43-8.06,14.76-13.4,25-16,1.91-1.82,3.57-3.82,5-6,3.62-1.49,7.28-2.82,11-4,1.22-1.65,2.05-3.48,2.5-5.5,3.83-2.5,7-5.67,9.5-9.5,11.17-4.5,19-12.33,23.5-23.5,6.08-6.27,12.91-11.44,20.5-15.5,1.83-1.83,3.67-3.67,5.5-5.5,2.85-5.53,5.52-11.2,8-17,5.55-5.59,10.55-11.59,15-18,.41-2.73,1.08-5.4,2-8,6.08-7.82,11.41-16.16,16-25,3.29-8.57,6.96-16.9,11-25,1.73-8.5,3.73-16.83,6-25,.42-1.17,1.09-2.17,2-3,.23-7.7.73-15.36,1.5-23-1-3.86-.5-7.52,1.5-11,.67-3,.67-6,0-9-3.13-6.04-6.63-11.87-10.5-17.5-5.77-3.44-11.27-7.27-16.5-11.5-12.99-5.09-24.49-12.59-34.5-22.5-2.67-1.33-5.33-2.67-8-4-5.64-4.63-10.97-9.63-16-15-3.59-1.53-7.26-2.86-11-4-8.47-7.14-17.47-13.47-27-19-3.01-2.17-5.01-5-6-8.5,1.25-3.76,2.75-7.42,4.5-11,5.11-3.47,9.94-7.31,14.5-11.5,7.82-4.04,16.15-6.71,25-8,5.08-3.15,10.42-5.82,16-8,18.06-1.94,32.89-9.78,44.5-23.5,1.18-5.04,3.85-9.04,8-12,13.11-25.01,26.78-49.68,41-74,2.95-2.46,5.61-5.12,8-8,.02-6.18,2.02-11.51,6-16,.79-4.91,3.12-8.91,7-12,1.12-3.28,2.12-6.62,3-10,1.29-3.28,3.29-5.95,6-8,.33-2.33.67-4.67,1-7,4.87-6.87,8.87-14.2,12-22,7.45-9.77,14.45-19.77,21-30,1.1-4.02,2.6-7.85,4.5-11.5-.96-2.12-1.13-4.29-.5-6.5,11.07-16.47,19.73-34.14,26-53,.67-.67,1.33-1.33,2-2,.57-7,1.07-13.84,1.5-20.5-.96-1.42-1.79-2.92-2.5-4.5-5.03-3.94-9.53-8.44-13.5-13.5-2.33-.67-4.67-.67-7,0-17.85,9.09-34.85,19.42-51,31-7.51,3.18-13.51,8.18-18,15-8.27,2.77-14.6,7.94-19,15.5-2.51,1.75-5.17,3.25-8,4.5-11.43,12.15-23.09,24.15-35,36-9.38,4.88-17.05,11.71-23,20.5-10.77,6.6-19.77,15.1-27,25.5-4.4,3.39-9.07,6.39-14,9-1.97,3.43-4.3,6.6-7,9.5-10.52,7.02-19.19,15.86-26,26.5-4.97,3.23-9.3,7.23-13,12-10.57,6.91-18.73,16.07-24.5,27.5-5.98,6.64-11.48,13.64-16.5,21-8.83,6.66-16.49,14.49-23,23.5-3.1,1.44-5.94,3.27-8.5,5.5-2.91,6.14-6.57,11.81-11,17-3.37,3.7-7.03,7.04-11,10l-3,6c-3.67,3-7.33,6-11,9-1.64,3.96-3.31,7.96-5,12-4.8,4.79-8.8,10.12-12,16-4.63,4.81-9.63,9.14-15,13-3.77,7.88-8.77,14.88-15,21-1,2.67-2,5.33-3,8-6.64,6.61-12.3,13.94-17,22-8.57,5.89-14.9,13.56-19,23-7.12,4.79-12.45,11.12-16,19-9.39,11.77-18.06,24.1-26,37-4.27,5.28-8.94,10.28-14,15-9.12,14.58-17.46,29.58-25,45-6.6,8.94-11.94,18.61-16,29-4,5.33-8,10.67-12,16-1.58,4.59-2.92,9.25-4,14-8.11,10.89-14.11,22.89-18,36-2.86,4.37-6.19,8.37-10,12-1.37,3.66-1.7,7.33-1,11-1.42,5.96-3.92,11.46-7.5,16.5.91,1.79,1.08,3.62.5,5.5-5.85,9.02-10.01,18.68-12.5,29,.8,3.46,1.47,6.96,2,10.5-4.87,19.03-12.37,36.86-22.5,53.5l-3,15c-3.41,9.14-7.08,18.14-11,27-1.62,3.58-3.95,6.58-7,9-1.64,4.29-1.8,8.63-.5,13-2.78,5.94-7.11,10.44-13,13.5-4.26.22-8.43.38-12.5.5-4.13-2.83-8.63-5-13.5-6.5-.76-1.51-1.76-2.85-3-4-4.78-.12-9.45-.79-14-2-2.02-3.18-2.52-6.68-1.5-10.5,2.23-8.02,5.23-15.68,9-23,.33-3,.67-6,1-9,3.94-8.22,7.61-16.55,11-25,3.46-7.58,7.46-14.91,12-22,.34-4.06,1.01-8.06,2-12,3.1-6.07,5.43-12.41,7-19,3.91-5.92,7.07-12.26,9.5-19,.03-2.96-.3-5.96-1-9,1.9-2.72,3.57-5.56,5-8.5-1.01-10.62,1.66-20.29,8-29-1.27-3.51-1.1-7.01.5-10.5,9.12-13.59,16.12-28.25,21-44,2.24-2.15,4.24-4.48,6-7,2.72-8.04,7.05-15.04,13-21,.97-1.89,1.64-3.89,2-6,4.03-6.02,8.03-12.02,12-18,2.28-4.12,4.12-8.45,5.5-13,6.67-4.66,10.83-10.99,12.5-19l6-6c3.61-8.19,8.95-15.19,16-21,9.72-15.4,19.05-31.07,28-47,6.03-6.04,11.37-12.71,16-20,7-7.67,14-15.33,21-23,2.48-4.9,4.81-9.9,7-15,4.4-4.47,8.07-9.47,11-15,4.25-3.13,7.59-7.13,10-12,3.3-2.29,6.3-4.96,9-8,5.15-9.62,12.15-17.62,21-24,3.23-8.12,8.56-14.46,16-19,1.37-6.07,4.7-10.74,10-14,2.84-7.17,7.51-12.84,14-17,1.18-4.51,3.85-7.85,8-10,2.78-6.25,7.11-11.25,13-15,.31-1.27.81-2.43,1.5-3.5,5.53-2.54,9.37-6.7,11.5-12.5,5.05-4.22,9.22-9.22,12.5-15,1.69-1.53,3.53-2.86,5.5-4,.56-2.22,1.56-4.22,3-6,4.33-3.67,8.67-7.33,13-11,1.6-4.13,3.93-7.79,7-11,6.04-4.38,11.04-9.71,15-16,1.73-2.12,3.9-3.62,6.5-4.5,1.95-3.79,4.95-6.29,9-7.5,2.59-5.42,6.42-9.76,11.5-13,2.17-4.83,5.67-8.33,10.5-10.5,7.82-9.48,16.65-17.98,26.5-25.5-.05-3.11,1.11-5.61,3.5-7.5,12.61-10.94,24.94-22.27,37-34,2.84-1.92,5.84-3.59,9-5,11.05-12.05,22.39-23.72,34-35,3.81-3.74,8.14-6.74,13-9,6.57-7.81,14.24-14.47,23-20,7.93-7.96,16.6-14.96,26-21,8.87-9.55,18.87-17.55,30-24,5.13-7.23,11.79-12.57,20-16,6.07-5.6,12.73-10.1,20-13.5Z"/>
  <path pathLength="1" class="cls-1" d="M1799.02,261c1.59.42,3.09,1.09,4.5,2,6.92.72,13.42,3.22,19.5,7.5,6.63,1.65,12.63,4.48,18,8.5,1.56,3.07,2.9,6.23,4,9.5-1.16,3.39-1.16,6.73,0,10-.5,4.03-1.83,7.69-4,11,.09,1.11.42,2.11,1,3,1.37.4,2.71.9,4,1.5,16.08-2.29,32.08-4.79,48-7.5,2.28-.47,4.28-1.47,6-3,34.68-5.09,69.18-9.92,103.5-14.5,3,.67,6,1.33,9,2,1.86-1.71,4.03-2.71,6.5-3,12.14-.24,24.31.09,36.5,1,4.77.04,9.44-.63,14-2,10.8,1.41,21.63,2.57,32.5,3.5,1.05,1.39,2.38,2.39,4,3,7.17,2.15,14.17,4.82,21,8,4.39,3.21,7.39,7.38,9,12.5,2.97,2.39,4.3,5.55,4,9.5-.02,3.38-.85,6.55-2.5,9.5-7.76,6.09-16.59,8.92-26.5,8.5-7.89-2.38-15.55-5.22-23-8.5-2.83,1.38-5.83,2.05-9,2-27.8,1.09-55.63,1.09-83.5,0-13.68,4.42-27.68,7.42-42,9-1.89-.08-3.73-.41-5.5-1-10.15,3.05-20.32,6.05-30.5,9-1.78-.74-3.62-1.41-5.5-2-11.76,2.89-22.76,7.39-33,13.5-6.36,1.68-12.69,3.34-19,5-1.67,1-3.33,2-5,3-13.34,3.34-26.67,6.67-40,10-10.21,12.25-17.38,26.09-21.5,41.5-3.8,3.07-4.97,6.9-3.5,11.5-1.12,2.41-2.62,4.58-4.5,6.5-.51,2.38-1.18,4.71-2,7-1.3,7.97-2.64,15.97-4,24-4.8,10.88-9.13,21.88-13,33-4.41,4.73-8.41,9.73-12,15-2.2,9.6-4.2,19.27-6,29-3.79,5.92-6.79,12.25-9,19-2.7,3.44-5.03,7.1-7,11-5.79,30.48-13.45,60.48-23,90-2.06,7.92-3.9,15.92-5.5,24,.18,1.05.51,2.05,1,3-3.75,10.54-3.75,21.04,0,31.5-1.35,2.31-2.02,4.81-2,7.5,1.74,13.27,3.24,26.61,4.5,40,1.29,1.75,2.46,3.58,3.5,5.5-3.78,8.12-1.45,13.78,7,17,3.48.91,6.98,1.75,10.5,2.5,11.38-1.23,22.55-3.4,33.5-6.5,8.75-5.71,18.09-10.38,28-14,3.74-3.41,7.74-6.41,12-9,17.31-9.5,33.64-20.33,49-32.5,1.43-5.8,2.76-11.63,4-17.5-.13-1.63-.63-3.13-1.5-4.5-.72-13.4-1.22-26.74-1.5-40,2.42-11.57,3.92-23.24,4.5-35,.9-2.58,2.23-4.92,4-7,5.64-29.73,18.64-56.07,39-79,1.01-1.53,1.51-3.19,1.5-5,1.81,0,3.48-.49,5-1.5,6-4.67,11.33-10,16-16,2.51-1.42,4.84-3.09,7-5,14.46-4.05,28.79-3.38,43,2,3,.33,6,.67,9,1,9.66,5.31,18.49,11.81,26.5,19.5.33,1,.67,2,1,3,4.67,4,9.33,8,14,12,3.33,7.3,6.66,14.63,10,22,.67,3,.67,6,0,9-4.68,8.71-7.01,18.04-7,28-1.58,1.46-2.92,3.13-4,5-3.03,9.37-6.03,18.7-9,28-5.26,5.52-9.26,11.86-12,19-6.06,7.72-11.72,15.72-17,24-4.7,3.19-9.04,6.86-13,11-.61,3.05-2.11,5.55-4.5,7.5-9.76,6.93-20.09,12.93-31,18-3.16,1.47-6.49,2.47-10,3-4.88,4.17-6.21,9.34-4,15.5,1.05.88,2.21,1.55,3.5,2,9.87-3.86,20.04-6.7,30.5-8.5,1.81-2.4,4.14-4.07,7-5,18.01-6.34,35.68-13.68,53-22,10.52-5.85,20.52-12.52,30-20,7.16-8.16,14.66-16,22.5-23.5l15-21c4.15-8.3,8.81-16.3,14-24,7.74-18.66,14.74-37.66,21-57,4.83-5.83,9.99-11.33,15.5-16.5,5.89-1.58,11.89-1.91,18-1,6.3,5.81,12.97,11.15,20,16,4.35,4.34,6.35,9.68,6,16,.21,4.56-.29,9.06-1.5,13.5-1.33,1.67-2.67,3.33-4,5v6c-6.62,9.09-12.95,18.43-19,28,.6,8.88-1.06,17.22-5,25-.76,10.83-4.76,20.17-12,28-1.49,15.03-2.99,30.03-4.5,45,2.59,6.5,4.59,13.17,6,20,4.31.87,8.64,1.03,13,.5,3.73-2.25,7.73-3.91,12-5,5.7-4.18,11.7-7.85,18-11,2.7-5.03,6.7-8.69,12-11,3.29-4.95,6.95-9.62,11-14,5.92-2.25,10.25-6.25,13-12,3.52-3.14,7.35-5.97,11.5-8.5,4.9-6.9,10.56-13.24,17-19,.67-1.33,1.33-2.67,2-4,17.74-17.41,34.41-35.74,50-55,6.45-4.54,11.79-10.21,16-17,3.56-1.63,6.89-3.63,10-6,3.32-6.66,6.66-13.33,10-20,1.71-2.04,3.71-3.71,6-5,2.23-6.59,6.73-9.42,13.5-8.5,5.55,3.52,11.55,6.18,18,8,3.83,3.83,7.67,7.67,11.5,11.5.42,4.42,1.25,8.75,2.5,13-1.92,10.14-3.09,20.48-3.5,31-2.59,5.46-4.75,11.13-6.5,17,.29,2.07,1.45,3.4,3.5,4,2.07-.76,4.24-1.26,6.5-1.5,3.11-3.95,6.44-7.78,10-11.5,10.14-7.25,20.14-14.75,30-22.5,3.55-1.94,7.21-3.61,11-5,2.7-3.04,5.7-5.7,9-8,10.11-4.22,19.77-9.22,29-15,2.67-.33,5.33-.67,8-1,2.74-3.88,6.41-6.54,11-8,8.33-.67,16.67-.67,25,0,3.78.55,6.45,2.55,8,6,4.97.31,9.64,1.65,14,4,3.2,3.54,6.7,6.7,10.5,9.5,1.04,2.22,1.71,4.55,2,7,2.69,1.69,4.69,4.03,6,7,1.01,5.24,2.18,10.41,3.5,15.5-2.67,14.59-5.67,28.92-9,43,.56,13.21.9,26.37,1,39.5-1.35,1.91-2.02,4.08-2,6.5,1.29,4.5,1.29,9,0,13.5,1.5,6.33,3,12.67,4.5,19,2.39,5.59,5.89,10.43,10.5,14.5,4,.67,8,.67,12,0,7.16-.97,14.16-2.3,21-4,1.33-2.67,3.33-4.67,6-6,8.93-4.76,18.26-8.76,28-12,7.03-5.18,14.03-10.34,21-15.5,6.23-6.06,11.06-13.06,14.5-21,4.92-5.32,10.58-9.32,17-12,1.93,1.36,4.09,2.19,6.5,2.5,1.58,3,2.75,6.17,3.5,9.5,7.64,9.53,8.64,19.86,3,31-2.17,4.34-4.84,8.34-8,12-3.11,10.06-8.61,18.56-16.5,25.5-12.46,8.56-25.79,15.56-40,21-11.9,11.64-26.24,16.31-43,14-1.33,1-2.67,2-4,3-16.31,1.02-31.31-2.98-45-12-7.13-7.49-14.63-14.66-22.5-21.5-4.7-5.68-8.04-12.01-10-19-1-1.33-2-2.67-3-4-2.41-8.29-4.75-16.63-7-25-2.03-11.29-1.53-22.45,1.5-33.5-3.74-18.22-2.57-36.05,3.5-53.5,1.46-6.62,2.13-13.28,2-20-2.8-.94-5.63-.78-8.5.5-6.93,3.81-13.93,7.48-21,11-5.75,5.71-12.08,10.71-19,15-4.86,3.29-10.2,5.63-16,7-1.96,2.96-4.29,5.63-7,8-4.38,3.36-9.04,6.36-14,9-5.41,1.57-9.07,5.07-11,10.5-4.31,3.14-8.48,6.48-12.5,10-.97,1.89-1.64,3.89-2,6-5.45,6.11-10.11,12.78-14,20-5.99,5-11.66,10.33-17,16-1.5,14.79-7.83,27.12-19,37-2.29,5.7-6.45,9.2-12.5,10.5-1.54,1.58-2.71,3.41-3.5,5.5-3.93,3.05-7.76,6.21-11.5,9.5-3.76.74-7.43.4-11-1-6.43-4.42-12.6-9.26-18.5-14.5-1.96-4.79-4.13-9.45-6.5-14,2.57-5.81,4.57-11.81,6-18,.98-.48,1.81-1.14,2.5-2,1.55-5.42,3.88-10.42,7-15,4.67-12.02,9.34-24.02,14-36,.98-4.72,2.14-9.38,3.5-14-.27-2.77-1.77-4.44-4.5-5-2.23,1.87-4.73,3.37-7.5,4.5-4.54,5.37-9.21,10.53-14,15.5-3.08,1.29-5.91,2.96-8.5,5-2.37,4.35-4.7,8.69-7,13-10.01,11.67-21.01,22.34-33,32-.47,1.75-1.14,3.41-2,5-7.19,5.86-13.69,12.36-19.5,19.5-12.16,7.49-23.16,16.49-33,27-9.78,6.11-20.45,9.11-32,9-16.79,1.72-31.12-3.28-43-15-1.59-.86-3.25-1.53-5-2-2.41-4.42-5.58-8.25-9.5-11.5-1.34-4-3.67-7.33-7-10-3.03-9.1-6.03-18.1-9-27-4.35-4.13-8.52-3.96-12.5.5-1.86,3.87-4.86,6.2-9,7-6.74,5.75-13.74,11.08-21,16-7.81,3.07-14.81,7.4-21,13-21.93,5.97-43.27,13.63-64,23-10.63,1.61-21.3,3.11-32,4.5-4.04.14-7.37-1.36-10-4.5-16.76-.43-29.26-7.93-37.5-22.5-1.09-.79-2.25-1.46-3.5-2-2.82,2.32-5.48,4.82-8,7.5-5.33,3.33-10.67,6.67-16,10-6.93,6.93-14.93,12.27-24,16-2.98,3.33-6.65,5.33-11,6l-21,15c-4.96,1.4-9.62,3.4-14,6-7.64.88-15.14,2.38-22.5,4.5-2.15-.46-4.31-.79-6.5-1-5.32,1.06-10.65,1.56-16,1.5-6.62-1.24-12.95-3.24-19-6-10.76-1.05-20.43-4.88-29-11.5-1.64-3.47-4.14-6.14-7.5-8-4.22-4.61-7.89-9.61-11-15-4.5-9.49-6.5-19.49-6-30-5.14-21.99-7.47-44.32-7-67,2.58-2.76,3.08-5.92,1.5-9.5,1.72-15.37,4.72-30.37,9-45-.12-4.61-2.45-6.45-7-5.5.46,5.86-1.88,10.2-7,13-.89,3.79-3.23,6.29-7,7.5-2.15,3.11-4.65,5.95-7.5,8.5-8.42,12.08-16.42,24.42-24,37l-17.5,17.5-21,15c-2.03,2.09-3.69,4.43-5,7-7.56,3.91-14.23,8.91-20,15-2.29.82-4.62,1.49-7,2-8.94,10.27-19.61,18.27-32,24-15.56,16.63-34.56,27.97-57,34-3.1,2.93-6.77,4.93-11,6-7.24,5.9-15.57,8.9-25,9-7.43,5.31-15.6,7.14-24.5,5.5-2.73,1.28-5.57,2.45-8.5,3.5-2.21.63-4.38.46-6.5-.5-11.65,3.92-22.82,2.75-33.5-3.5-4.91-4.75-10.24-8.91-16-12.5-3.95-5.12-8.12-10.12-12.5-15-.78-1.23-1.28-2.56-1.5-4,1.98-4.23,3.81-8.56,5.5-13,2.83-3.85,5.67-7.69,8.5-11.5,2.11-.56,4.11-1.39,6-2.5,14.03-.24,28.03-1.74,42-4.5,4.3-2.58,8.96-4.25,14-5,4.4-1.95,7.57-5.11,9.5-9.5,1.45-10.71,2.95-21.37,4.5-32-2.16-7.58-2.16-15.08,0-22.5-1.03-9.61-2.2-19.44-3.5-29.5-4.33-12.68-8.67-25.35-13-38-4.07-7.13-8.4-14.13-13-21-1.88-5.92-3.54-11.92-5-18-1.54-3.92-3.71-7.42-6.5-10.5-2-.67-4-.67-6,0-9.71,6.19-19.71,11.85-30,17-10.47,8.73-21.47,16.73-33,24-3.7,3.37-7.04,7.03-10,11-8.03,3.85-16.36,6.85-25,9-4.61,3.97-9.94,6.31-16,7-2.67,2-5.33,4-8,6-4.36,12.21-10.19,23.71-17.5,34.5-2.26,9.1-6.93,16.76-14,23-3.83,7.32-9,13.49-15.5,18.5-4.67,1.67-9.33,3.33-14,5-1.43,4.96-3.27,9.79-5.5,14.5-8.9,9.71-19.07,17.87-30.5,24.5l-8,8c-2.97.79-5.97,1.46-9,2-5.69,4.53-12.19,6.7-19.5,6.5-8.51-1.68-17.01-2.51-25.5-2.5-5.5-4.3-11.83-6.64-19-7-15.67-7.65-30.34-16.98-44-28-6.01-7.73-11.85-15.56-17.5-23.5-2.05-5.72-3.55-11.55-4.5-17.5.4-11.33,1.56-22.5,3.5-33.5,1.5-6.51,4.5-12.18,9-17,3.19-11.71,8.52-22.37,16-32,1.66-3.96,3.33-7.96,5-12,3.57-4.79,6.9-9.79,10-15,.81-4.44,2.31-8.61,4.5-12.5-1.16-2.32-2.82-4.16-5-5.5-8.01,3.19-16.34,4.69-25,4.5-7.52,7.12-16.52,10.78-27,11-2.23,1.15-4.56,2.15-7,3-4.52,6.52-10.85,9.86-19,10-5.18,3.48-10.85,5.81-17,7-2.79,2.73-6.12,4.39-10,5-2,1.33-3.67,3-5,5-8.51,2.21-16.85,4.88-25,8-5.36,4.7-10.69,9.36-16,14-4.77,3.1-9.77,5.77-15,8-5,4.82-9,10.32-12,16.5-2.9,1.91-5.74,3.91-8.5,6-7.99,9.16-15.83,18.5-23.5,28-7.13,6.3-12.97,13.63-17.5,22-1.76,2.22-3.76,4.22-6,6-1.12,3.57-2.79,6.9-5,10-4.05,20.84-13.05,39.17-27,55-1,2.67-2,5.33-3,8-4.45,3.04-9.11,5.71-14,8-1.19-.93-2.53-1.6-4-2-5.84,1.04-11.67,2.04-17.5,3-10.33-7.41-20.16-15.41-29.5-24-1.7-5.63-1.7-11.29,0-17,7.96-16.61,14.29-33.95,19-52,1.53-4.35,4.03-8.02,7.5-11-.92-6.21.58-11.87,4.5-17,.64-11.24,3.31-21.9,8-32,3.07-15.35,7.4-30.35,13-45l3-3c1.41-5.68,3.08-11.35,5-17-.45-8.56,2.38-15.73,8.5-21.5,8.04-.66,16.04-.33,24,1,3.79,3.23,8.12,5.39,13,6.5,3.83,3.33,6.67,7.33,8.5,12,4.48,2.48,7.48,6.14,9,11,1,.67,2,1.33,3,2,8.47-3.79,16.97-7.62,25.5-11.5,6.46-7.73,14.79-12.06,25-13,5.09-3.71,10.76-6.04,17-7,2.42-2.09,5.09-3.76,8-5,11.72-.56,22.72-3.56,33-9,6.15-2.12,12.49-3.79,19-5,3.42-2.44,7.09-4.44,11-6,10.4-2.69,20.4-6.35,30-11,7.36-1.34,14.02-4.34,20-9,6.05-1.18,12.05-2.68,18-4.5,10.16,1.1,20.16,2.93,30,5.5,5.59,2.47,10.93,5.47,16,9,9.1,2.39,18.1,5.05,27,8,5.21,4.88,10.71,9.38,16.5,13.5,2.9,8.18,3.56,16.51,2,25-1.05,1.59-2.21,3.09-3.5,4.5-3.19,2.17-6.35,4.33-9.5,6.5-2.41,7.74-7.07,13.74-14,18-4.59,8.58-10.59,15.91-18,22-1.26,5.51-4.26,9.84-9,13-4.22,6.45-7.89,13.12-11,20-.86,6.72-2.02,13.38-3.5,20,1.43,3.17,1.27,6.17-.5,9-2.77,14.96,2.4,26.13,15.5,33.5,5.15.16,10.32.32,15.5.5,22.31-7.81,40.14-21.48,53.5-41,3.29-3.79,6.79-7.46,10.5-11,.82-2.29,1.49-4.62,2-7,4.69-3.02,7.69-7.36,9-13,3.25-5.59,6.91-10.92,11-16,2.13-3.73,3.47-7.73,4-12,2.94-3.38,4.27-7.38,4-12,1.73-5.36,3.56-10.69,5.5-16-1.06-3.12-2.39-6.12-4-9,.33-.67.67-1.33,1-2-2-3.33-4-6.67-6-10-3.69-2.85-6.85-6.19-9.5-10-2.49-5.66-5.49-10.99-9-16-1.65-3.79-3.15-7.62-4.5-11.5.46-3.28,1.29-6.45,2.5-9.5,3.84-3.51,7.34-7.34,10.5-11.5,1.6-.27,3.1-.77,4.5-1.5,22.12,1.64,42.29,8.81,60.5,21.5,3.67,4.33,7.33,8.67,11,13,2.51,1.34,5.18,2.17,8,2.5,4.53-.93,8.86-2.43,13-4.5,9.84-.84,18.18-4.84,25-12,11.02-2.9,21.02-7.9,30-15,8.37-2.35,16.04-6.02,23-11,2-.33,4-.67,6-1,9.35-5.17,19.35-8.67,30-10.5,10.67,2.21,21.34,4.04,32,5.5,4.87,4.88,9.04,10.38,12.5,16.5.33,7,.67,14,1,21,2.65,13.54,4.48,27.21,5.5,41-.49.95-.82,1.95-1,3,1.85,8.67,5.68,16.34,11.5,23,.84,3.01,1.67,6.01,2.5,9-1.76,5.09-.6,9.42,3.5,13,3.53,8.51,6.53,17.18,9,26,.01,7.64.84,15.14,2.5,22.5-4.44,10.63-6.61,21.79-6.5,33.5,4.42,9.48,11.58,12.31,21.5,8.5,5.18-2.39,10.51-4.39,16-6,17.31-11.66,34.31-23.66,51-36,24.9-22,47.4-46.17,67.5-72.5,4.7-7.05,9.03-14.39,13-22,3.11-2.19,5.77-4.86,8-8,4.92-7.5,9.58-15.17,14-23,11.4-12.12,19.73-26.12,25-42,6.04-9.71,10.71-20.04,14-31,7.82-15.64,16.15-30.98,25-46,4.69-17.09,10.36-33.75,17-50,.33-2.33.67-4.67,1-7,4.13-9.34,8.63-18.5,13.5-27.5-4.51-9.53-11.84-12.36-22-8.5-6.41-2.48-13.08-3.48-20-3-8.67,1.34-17,.67-25-2-2.02,1.04-4.02,2.04-6,3-4.51-2.61-9.01-2.61-13.5,0-7.33-.69-14.67-1.69-22-3-3.2.5-6.2,1.5-9,3-4.2-1.57-8.36-3.23-12.5-5-2.53,1.44-5.19,1.94-8,1.5-9.42-3.21-18.09-7.71-26-13.5-2.25-4.75-3.42-9.75-3.5-15,4.86-4.2,9.69-8.36,14.5-12.5,10.54-3.64,21.21-4.47,32-2.5,8.17-.65,16.34-1.32,24.5-2,2.53.56,5.03,1.23,7.5,2,4.55-2.36,9.05-2.36,13.5,0,.87-.23,1.71-.57,2.5-1,15.79,1.52,31.63,2.85,47.5,4,5.67-1.66,11.17-1.32,16.5,1,4.94-2.37,9.77-2.37,14.5,0,5.94-1.29,11.77-2.96,17.5-5,.74-1.41,1.58-2.74,2.5-4,.58-4.37,1.91-8.7,4-13,5.05-9.17,9.72-18.5,14-28,2.37-2.71,5.04-5.04,8-7,2.88-6.06,7.38-10.06,13.5-12ZM1960.02,608c4.35-.17,8.68,0,13,.5.52.56.86,1.23,1,2-.63,2.14-1.13,4.3-1.5,6.5-2,3.3-4,6.63-6,10-1.61,4.97-3.27,9.97-5,15-6.36,7.42-11.7,15.42-16,24-3.7,2.2-6.53,5.2-8.5,9-2.17,1.45-4.5,2.61-7,3.5-1.76,2.85-3.76,5.51-6,8-4.91,1.65-9.24,3.99-13,7-1.8-1.59-2.8-3.59-3-6,1.16-4.16,2.99-7.99,5.5-11.5.84-3.84,1.67-7.67,2.5-11.5-.06-1.44-.39-2.77-1-4,2.87-4.03,6.2-7.53,10-10.5.81-1.92,1.31-3.92,1.5-6,2.96-1.96,5.63-4.29,8-7,1.16-4.47,3.16-8.47,6-12,2.23-2.2,4.73-4.03,7.5-5.5,2.58-5.41,6.58-9.25,12-11.5Z"/>
  <path pathLength="1" class="cls-1" d="M2199.02,401c5.63,1.89,11.29,3.73,17,5.5,3.24,5.08,7.58,8.91,13,11.5,1.08,1.16,1.92,2.5,2.5,4,2.39,23.95-8.44,35.11-32.5,33.5-11.24-5.95-18.57-15.12-22-27.5,1.49-4.32,2.99-8.66,4.5-13,3.73-3.22,6.89-6.89,9.5-11,2.59-1.42,5.26-2.42,8-3Z"/>
  <path pathLength="1" class="cls-1" d="M1521.02,1072c4.32.54,8.65,1.04,13,1.5,1.33,1,2.67,2,4,3,6.42,1.71,12.75,3.71,19,6,2.52.5,5.02.33,7.5-.5,17.02,4.16,34.19,7.66,51.5,10.5,10.17,5.25,19.84,11.25,29,18,22.25,8.95,41.59,22.12,58,39.5,14.52,6.34,29.19,12.17,44,17.5,4.12,2.77,8.29,5.6,12.5,8.5,6.7,8.23,12.54,17.07,17.5,26.5,4.25,1.36,8.25,3.19,12,5.5,2.45,3.91,4.62,7.91,6.5,12,8.11,9.45,16.28,18.95,24.5,28.5,2.95.81,5.61,2.14,8,4,11.62-1.08,23.28-2.24,35-3.5,9,1.84,17.34,5.34,25,10.5,7,.67,14,.67,21,0,5.71-3.06,11.88-4.56,18.5-4.5,6.51.78,13.01,1.61,19.5,2.5,4.17,2.18,8.5,4.18,13,6,5.73.21,11.4.88,17,2,5.58,1.79,10.92,4.13,16,7l3,3c5.79,2.22,11.79,3.89,18,5,1.33,1,2.67,2,4,3,6,.33,12,.67,18,1,4.22.17,8.22,1.17,12,3,7,.33,14,.67,21,1,4.48,1.95,9.15,3.29,14,4l16.5,10.5c.75,4.52,1.59,9.02,2.5,13.5-.2,3.28-1.2,6.28-3,9-15.93,1.62-31.93,1.95-48,1-2.46-1.56-5.12-2.56-8-3-8.33-.33-16.67-.67-25-1-13.26-5.24-25.6-12.24-37-21-3.86-1.42-7.53-3.09-11-5-14.03-1.43-27.86-3.93-41.5-7.5-8.85.98-17.69,2.15-26.5,3.5-2.41,3.03-5.58,4.53-9.5,4.5-4.87.12-9.04-1.38-12.5-4.5-6.21-.86-11.54-3.53-16-8-7.77-1.4-15.1-.4-22,3-6.4,1.04-12.74,2.37-19,4-3.76,1.92-7.09,4.42-10,7.5-7.98,3.32-15.64,7.15-23,11.5-5.66.74-11.32,1.41-17,2-10.3,2.33-20.63,4.66-31,7-8.9,5.3-18.24,9.63-28,13-6.5,4.11-13.16,7.95-20,11.5-2.06,3.51-2.4,7.18-1,11,7.66,3.04,15,6.54,22,10.5,7.68.31,15.35.31,23,0,2.73.41,5.4,1.08,8,2,4.85,2.59,9.85,4.92,15,7,14.15,13.47,27.48,27.47,40,42,17.7,10.35,33.7,23.02,48,38,7.06,2.86,13.06,7.2,18,13,9.62,5.61,18.12,12.77,25.5,21.5,3.05,3.27,5.38,6.93,7,11,2.35,7.56,4.52,15.22,6.5,23-.39,5.22-3.22,7.89-8.5,8-10.44-1.7-18.44-7.03-24-16-9.14-10.5-20.3-17.66-33.5-21.5-3.76-1.81-7.42-3.81-11-6-5.44-5.23-11.1-10.23-17-15-6.06-4.72-12.39-9.06-19-13-5.94-5.1-10.94-10.93-15-17.5-9.31-6.14-17.15-13.81-23.5-23-2.5-1.83-5-3.67-7.5-5.5-4.3-.55-8.3-1.88-12-4-7.4.31-14.4-1.02-21-4-11.35.95-22.01-1.22-32-6.5-4.53,1.78-9.19,2.28-14,1.5-6.69-2.2-13.53-4.04-20.5-5.5-4.76,1.25-9.26,3.09-13.5,5.5-3.67.67-7.33.67-11,0-2.97-4.31-6.64-7.97-11-11-7.26-2.51-14.76-4.01-22.5-4.5-3.13.7-6.29,1.2-9.5,1.5l-6,6c-12,.67-24,1.34-36,2-3.87,1.56-7.54,3.39-11,5.5-3.81-1.6-7.81-2.77-12-3.5l-2-2c-9.63-1.45-19.29-1.79-29-1-8.21,3.05-16.71,5.21-25.5,6.5-7.2-2.69-14.36-2.53-21.5.5-9.98,1-19.98,1.67-30,2-3.9,1.53-7.4,3.7-10.5,6.5-11.05-7.57-20.88-6.4-29.5,3.5-4.46,2.06-8.79,4.4-13,7-2.88,1.13-5.88,1.79-9,2-13.59,6.96-27.26,13.63-41,20-6.78,7.12-11.94,15.28-15.5,24.5-8.55,6.03-17.05,12.2-25.5,18.5-4.6,4.6-8.44,9.77-11.5,15.5-5.22,3.7-10.39,7.53-15.5,11.5-6.96,9.14-15.3,16.64-25,22.5-10.97,2.81-20.63,7.98-29,15.5-4.67.67-9.33.67-14,0-5.37-4.05-11.21-7.21-17.5-9.5-2.3-4.51-4.3-9.18-6-14l-5-5c-2.76-6.51-6.76-12.18-12-17-1.17-2.33-2.33-4.67-3.5-7,.82-3.16,2.82-4.83,6-5,2.64.94,5.3,1.94,8,3,6.94-2.98,13.94-5.82,21-8.5,5-4.33,10-8.67,15-13,6.52-3.51,12.18-8.17,17-14,3.63-2.53,7.63-4.19,12-5,5.51-5.85,11.84-10.52,19-14,6.02-5.34,12.68-9.67,20-13,4.69-3.36,9.35-6.7,14-10,2.59-1.2,5.26-2.2,8-3,1.04-4.76,3.38-8.76,7-12,6.06-3.69,12.22-7.19,18.5-10.5,1.58-5.98.58-11.65-3-17-9.66-11.03-21.82-16.86-36.5-17.5-5.38-5.04-11.04-9.71-17-14-3.37-.52-6.37-1.85-9-4-6.16-1.47-12.33-1.64-18.5-.5-3.88-.65-7.71-1.48-11.5-2.5-5.19-4.1-10.19-8.43-15-13-7.23-4.56-14.9-8.23-23-11-5.72-.28-11.38-.95-17-2-11.33-5.33-22.67-10.67-34-16-9.61-11.02-21.61-14.35-36-10-1.43,1.8-3.26,2.96-5.5,3.5-2.99-.78-5.83-1.94-8.5-3.5-10.33-.33-20.67-.67-31-1-2.67-1-5.33-2-8-3-7-.33-14-.67-21-1-1.23-.78-2.56-1.28-4-1.5-6.9,1.54-13.9,2.54-21,3-15.29-1.15-30.62-1.32-46-.5-1.5,1.25-3.17,2.25-5,3-6.33.33-12.67.67-19,1-.83.91-1.83,1.58-3,2-6.31.85-12.65,1.51-19,2-1.99,1.75-4.32,2.75-7,3-14.32,1.86-28.65,3.52-43,5-3.49,1.79-7.16,3.12-11,4-5.46,4.4-11.46,7.73-18,10-6.37,1.07-12.37,3.07-18,6-3.06,1.53-5.73,3.53-8,6-8.21,1.18-16.21,3.18-24,6-3.84,2.5-6,6-6.5,10.5-2.39,2.83-4.22,6-5.5,9.5-6.84,1.28-13.51,3.62-20,7-12.91,11.16-27.57,18.83-44,23-12.03,7.36-22.2,16.86-30.5,28.5-2.38,7.92-6.21,15.09-11.5,21.5-10.57,6.98-20.07,5.81-28.5-3.5-.56-2.79-1.89-5.12-4-7-.13-5.18-1.13-10.18-3-15-3.09-5.85-5.92-11.85-8.5-18,1.48-1.98,3.15-3.82,5-5.5,16.81-3.91,31.14-12.24,43-25,15.43-7.72,30.76-15.38,46-23,3.12-.21,6.12-.87,9-2,13.38-7.73,25.38-17.4,36-29,3.12-.21,6.12-.87,9-2,6.09-6.09,12.76-11.43,20-16,6.15-1.52,12.15-3.52,18-6,7.39-.69,14.05-3.35,20-8,8.25,1.09,15.25-1.25,21-7,7.28-3.2,14.61-6.2,22-9l7-7c3.35-.93,6.18-.1,8.5,2.5,1.82-.83,3.65-1.66,5.5-2.5,7.36.31,14.36-1.02,21-4,6.41.31,12.41-1.03,18-4,5.75-.31,11.41-1.14,17-2.5,6.78,1.32,13.45.82,20-1.5,33.67-.67,67.33-.67,101,0,8.3,1.99,16.64,3.83,25,5.5,2.14-.52,4.3-.85,6.5-1,11.77,1.82,23.6,2.99,35.5,3.5,12.08,4.68,24.08,9.34,36,14,7.67.75,15.34,1.41,23,2,16.97,7.59,34.31,13.92,52,19,4.44,2.19,8.78,4.52,13,7,5.27.8,10.27,2.47,15,5,4,3.33,8,6.67,12,10,2.6.92,5.27,1.59,8,2,6.87,4.27,13.87,8.27,21,12,2.96,1.96,5.63,4.29,8,7,10.01,4.09,19.18,9.59,27.5,16.5,2.6,7.71,7.43,13.54,14.5,17.5,4.48.87,8.82,2.2,13,4,5.33.67,10.67.67,16,0,3.96-2.26,7.96-4.43,12-6.5,11.68,1.34,23.34,1.17,35-.5,15.71-3.35,31.38-7.02,47-11,10.35.31,20.68.14,31-.5,3.59,1.29,7.25,2.29,11,3,9.25-2.16,18.58-3.99,28-5.5,5.58-.81,11.08-.64,16.5.5,5.7-2.02,11.37-4.02,17-6,14.77-.4,29.61.1,44.5,1.5,6.18,3.26,12.51,6.26,19,9,6.62,1.38,13.28,1.71,20,1,5.09-2.48,10.09-5.14,15-8,3.22-5.13,7.55-9.13,13-12,3.52-3.68,7.18-7.18,11-10.5,5.8-2.73,11.8-4.89,18-6.5,3.66-4.66,7.66-8.99,12-13,4.22-1.2,8.55-1.87,13-2,2.41-1.58,5.08-2.58,8-3,7.43-2.88,14.43-6.55,21-11,4.29.21,7.96-1.13,11-4,13.82,2.18,17.66-2.99,11.5-15.5-12.89-12.14-25.56-24.47-38-37-2.8-5.08-5.97-9.92-9.5-14.5-2.88-.44-5.54-1.44-8-3-5.78-.09-11.44-.76-17-2-10.38-7.73-20.71-15.39-31-23-4.7-5.03-9.7-9.7-15-14-11.27-2.8-21.27-7.97-30-15.5-7.79-2.77-14.79-6.94-21-12.5-7.33-.33-14.67-.67-22-1-8.35-2.85-16.85-3.68-25.5-2.5-2.74-1.07-5.24-2.57-7.5-4.5-7.31-2.88-14.81-5.38-22.5-7.5-5.67,1.5-11,3.83-16,7-6.87-4.92-13.7-5.09-20.5-.5-10.59,2.42-21.26,4.25-32,5.5-3.95-1.56-7.78-3.23-11.5-5-.56.52-1.23.86-2,1-9.18-1.59-18.35-1.76-27.5-.5-5.7,6.85-13.03,9.19-22,7-6.6-3.06-13.27-3.06-20,0-5.67.33-11.33.67-17,1-2.12.26-3.78,1.26-5,3-5.38.31-10.72.97-16,2-12.76,4.53-25.76,8.19-39,11-9.7,7.36-19.7,14.36-30,21-5.83,6.5-11.67,13-17.5,19.5-.94,4.24-2.44,8.24-4.5,12-5.63,1.09-11.29,1.92-17,2.5-1.17.42-2.17,1.09-3,2-15.16,1.8-27.66-3.04-37.5-14.5-3.94-6.94-8.27-13.6-13-20-.62-5.86-2.78-11.02-6.5-15.5,3.33-3.67,6.67-7.33,10-11,5.6-3.09,11.6-4.76,18-5,4.6-4.64,9.93-8.31,16-11,2-.33,4-.67,6-1,3.47-1.71,6.81-3.71,10-6,7.77-3.55,15.77-6.55,24-9,5.76-4.11,11.76-7.77,18-11,4.73-2.53,9.73-4.2,15-5,5.93-2.93,11.59-6.27,17-10,4.6-.69,8.93-2.03,13-4,18.98-1.17,37.98-1.84,57-2,9.05-1.7,18.05-3.7,27-6,14.67-.33,29.33-.67,44-1l6-3c23.5-.17,46.84-.67,70-1.5Z"/>
</svg>